<?xml version="1.0" encoding="utf-8"?>
<!-- Generator: Adobe Illustrator 17.0.0, SVG Export Plug-In . SVG Version: 6.00 Build 0)  -->
<!DOCTYPE svg PUBLIC "-//W3C//DTD SVG 1.1//EN" "http://www.w3.org/Graphics/SVG/1.1/DTD/svg11.dtd">
<svg version="1.1" id="Layer_1" xmlns="http://www.w3.org/2000/svg" xmlns:xlink="http://www.w3.org/1999/xlink" x="0px" y="0px"
	 width="2971px" height="874px" viewBox="0 0 2971 874" enable-background="new 0 0 2971 874" xml:space="preserve">
<path fill-rule="evenodd" clip-rule="evenodd" fill="none" d="M1630.4,440.402v-1h150.8v1H1630.4z"/>
<path fill-rule="evenodd" clip-rule="evenodd" fill="none" d="M1781.6,482.402h-1v-86.6h1V482.402z"/>
<path fill-rule="evenodd" clip-rule="evenodd" fill="none" d="M1631.4,482.402h-1v-86.6h1V482.402z"/>
<path fill-rule="evenodd" clip-rule="evenodd" fill="none" d="M1460.201,482.512l0.486-0.909l75.712,43.69l-0.486,0.909
	L1460.201,482.512z"/>
<path fill-rule="evenodd" clip-rule="evenodd" fill="none" d="M1460.603,395.998l0.574-0.998l150.021,87.006l-0.574,0.998
	L1460.603,395.998z"/>
<path fill-rule="evenodd" clip-rule="evenodd" fill="none" d="M1535.525,352.697l0.467-0.879l75.284,43.688l-0.467,0.879
	L1535.525,352.697z"/>
<path fill-rule="evenodd" clip-rule="evenodd" fill="none" d="M1535.725,526.201l-0.528-0.844l75.477-43.353l0.528,0.844
	L1535.725,526.201z"/>
<path fill-rule="evenodd" clip-rule="evenodd" fill="none" d="M1461.124,396.601l-0.527-0.855l75.278-43.942l0.527,0.855
	L1461.124,396.601z"/>
<path fill-rule="evenodd" clip-rule="evenodd" fill="none" d="M1358.601,482.508l0.484-0.905l75.314,43.494l-0.484,0.905
	L1358.601,482.508z"/>
<path fill-rule="evenodd" clip-rule="evenodd" fill="none" d="M1358.6,440.402v-1h75.2v1H1358.6z"/>
<path fill-rule="evenodd" clip-rule="evenodd" fill="none" d="M1359.6,482.402h-1v-86.6h1V482.402z"/>
<path fill-rule="evenodd" clip-rule="evenodd" fill="none" d="M1359.124,396.601l-0.527-0.855l75.278-43.942l0.527,0.855
	L1359.124,396.601z"/>
<path fill-rule="evenodd" clip-rule="evenodd" fill="none" d="M1189.4,482.402h-1v-86.6h1V482.402z"/>
<path fill-rule="evenodd" clip-rule="evenodd" fill="none" d="M1189.001,396.679l0.482-0.877l75.116,42.122l-0.483,0.877
	L1189.001,396.679z"/>
<path fill-rule="evenodd" clip-rule="evenodd" fill="none" d="M1338.494,395.804l0.508,0.899l-74.896,42.097l-0.508-0.899
	L1338.494,395.804z"/>
<path fill-rule="evenodd" clip-rule="evenodd" fill="none" d="M1339.6,482.402h-1v-86.6h1V482.402z"/>
<path fill="none" d="M1630.997,482.553v-86.901l75.203-43.45l75.203,43.45v86.901l-75.203,43.451L1630.997,482.553z"/>
<path fill="none" d="M1460.797,482.553v-86.901l75.203-43.45l75.203,43.45v86.901L1536,526.003L1460.797,482.553z"/>
<path fill="none" d="M1359.197,482.553v-86.901l75.203-43.45l75.203,43.45v86.901l-75.203,43.451L1359.197,482.553z"/>
<path fill="none" d="M1188.997,482.553v-86.901l75.203-43.45l75.203,43.45v86.901l-75.203,43.451L1188.997,482.553z"/>
</svg>
