<?xml version="1.0" encoding="utf-8"?>
<!-- Generator: Adobe Illustrator 17.0.0, SVG Export Plug-In . SVG Version: 6.00 Build 0)  -->
<!DOCTYPE svg PUBLIC "-//W3C//DTD SVG 1.1//EN" "http://www.w3.org/Graphics/SVG/1.1/DTD/svg11.dtd">
<svg version="1.1" id="svg-text-logo" xmlns="http://www.w3.org/2000/svg" xmlns:xlink="http://www.w3.org/1999/xlink" x="0px" y="0px"
	 width="594.2px" height="175.768px" viewBox="22.9 480.122 594.2 175.768" enable-background="new 22.9 480.122 594.2 175.768"
	 xml:space="preserve">
<g>
	<path fill="none" stroke="#FFFFFF" stroke-miterlimit="10" d="M465.4,569.399v-1h150.8v1H465.4z"/>
	<path fill="none" stroke="#FFFFFF" stroke-miterlimit="10" d="M616.6,611.399h-1v-86.6h1V611.399z"/>
	<path fill="none" stroke="#FFFFFF" stroke-miterlimit="10" d="M466.4,611.399h-1v-86.6h1V611.399z"/>
	<path fill="none" stroke="#FFFFFF" stroke-miterlimit="10" d="M295.201,611.509l0.486-0.909l75.712,43.69l-0.486,0.909
		L295.201,611.509z"/>
	<path fill="none" stroke="#FFFFFF" stroke-miterlimit="10" d="M295.603,524.995l0.574-0.998l150.021,87.006l-0.574,0.998
		L295.603,524.995z"/>
	<path fill="none" stroke="#FFFFFF" stroke-miterlimit="10" d="M370.525,481.694l0.467-0.879l75.284,43.688l-0.467,0.879
		L370.525,481.694z"/>
	<path fill="none" stroke="#FFFFFF" stroke-miterlimit="10" d="M370.725,655.198l-0.528-0.844l75.477-43.353l0.528,0.844
		L370.725,655.198z"/>
	<path fill="none" stroke="#FFFFFF" stroke-miterlimit="10" d="M296.124,525.598l-0.527-0.855l75.278-43.942l0.527,0.855
		L296.124,525.598z"/>
	<path fill="none" stroke="#FFFFFF" stroke-miterlimit="10" d="M193.601,611.505l0.484-0.905l75.314,43.494l-0.484,0.905
		L193.601,611.505z"/>
	<path fill="none" stroke="#FFFFFF" stroke-miterlimit="10" d="M193.6,569.399v-1h75.2v1H193.6z"/>
	<path fill="none" stroke="#FFFFFF" stroke-miterlimit="10" d="M194.6,611.399h-1v-86.6h1V611.399z"/>
	<path fill="none" stroke="#FFFFFF" stroke-miterlimit="10" d="M194.124,525.598l-0.527-0.855l75.278-43.942l0.527,0.855
		L194.124,525.598z"/>
	<path fill="none" stroke="#FFFFFF" stroke-miterlimit="10" d="M24.4,611.399h-1v-86.6h1V611.399z"/>
	<path fill="none" stroke="#FFFFFF" stroke-miterlimit="10" d="M24.001,525.676l0.482-0.877l75.116,42.122l-0.483,0.877
		L24.001,525.676z"/>
	<path fill="none" stroke="#FFFFFF" stroke-miterlimit="10" d="M173.494,524.801l0.508,0.899l-74.896,42.097l-0.508-0.899
		L173.494,524.801z"/>
	<path fill="none" stroke="#FFFFFF" stroke-miterlimit="10" d="M174.6,611.399h-1v-86.6h1V611.399z"/>
	<path fill="none" stroke="#FFFFFF" stroke-miterlimit="10" d="M465.997,611.55v-86.901l75.203-43.45l75.203,43.45v86.901
		L541.2,655.001L465.997,611.55z"/>
	<path fill="none" stroke="#FFFFFF" stroke-miterlimit="10" d="M295.797,611.55v-86.901L371,481.199l75.203,43.45v86.901L371,655
		L295.797,611.55z"/>
	<path fill="none" stroke="#FFFFFF" stroke-miterlimit="10" d="M194.197,611.55v-86.901l75.203-43.45l75.203,43.45v86.901
		L269.4,655.001L194.197,611.55z"/>
	<path fill="none" stroke="#FFFFFF" stroke-miterlimit="10" d="M23.997,611.55v-86.901l75.203-43.45l75.203,43.45v86.901
		L99.2,655.001L23.997,611.55z"/>
</g>
</svg>
