<?xml version="1.0" encoding="utf-8"?>
<!-- Generator: Adobe Illustrator 17.0.0, SVG Export Plug-In . SVG Version: 6.00 Build 0)  -->
<!DOCTYPE svg PUBLIC "-//W3C//DTD SVG 1.1//EN" "http://www.w3.org/Graphics/SVG/1.1/DTD/svg11.dtd">
<svg version="1.1" id="Layer_1" xmlns="http://www.w3.org/2000/svg" xmlns:xlink="http://www.w3.org/1999/xlink" x="0px" y="0px"
	 width="2971px" height="874px" viewBox="0 0 2971 874" enable-background="new 0 0 2971 874" xml:space="preserve">
<path fill-rule="evenodd" clip-rule="evenodd" fill="none" stroke="#FFFFFF" stroke-width="40" stroke-miterlimit="10" d="M2212,446
	v-5h754v5H2212z"/>
<path fill-rule="evenodd" clip-rule="evenodd" fill="none" stroke="#FFFFFF" stroke-width="40" stroke-miterlimit="10" d="M2968,656
	h-5V223h5V656z"/>
<path fill-rule="evenodd" clip-rule="evenodd" fill="none" stroke="#FFFFFF" stroke-width="40" stroke-miterlimit="10" d="M2217,656
	h-5V223h5V656z"/>
<path fill-rule="evenodd" clip-rule="evenodd" fill="none" stroke="#FFFFFF" stroke-width="40" stroke-miterlimit="10" d="
	M1361.004,656.549l2.432-4.547l378.559,218.449l-2.432,4.547L1361.004,656.549z"/>
<path fill-rule="evenodd" clip-rule="evenodd" fill="none" stroke="#FFFFFF" stroke-width="40" stroke-miterlimit="10" d="
	M1363.015,223.98l2.868-4.99l750.102,435.03l-2.868,4.99L1363.015,223.98z"/>
<path fill-rule="evenodd" clip-rule="evenodd" fill="none" stroke="#FFFFFF" stroke-width="40" stroke-miterlimit="10" d="
	M1737.624,7.477l2.333-4.396l376.418,218.441l-2.334,4.396L1737.624,7.477z"/>
<path fill-rule="evenodd" clip-rule="evenodd" fill="none" stroke="#FFFFFF" stroke-width="40" stroke-miterlimit="10" d="
	M1738.627,874.993l-2.64-4.219l377.385-216.766l2.64,4.219L1738.627,874.993z"/>
<path fill-rule="evenodd" clip-rule="evenodd" fill="none" stroke="#FFFFFF" stroke-width="40" stroke-miterlimit="10" d="
	M1365.621,226.992l-2.633-4.276L1739.379,3.007l2.634,4.276L1365.621,226.992z"/>
<path fill-rule="evenodd" clip-rule="evenodd" fill="none" stroke="#FFFFFF" stroke-width="40" stroke-miterlimit="10" d="
	M853.004,656.528l2.419-4.526l376.572,217.469l-2.419,4.526L853.004,656.528z"/>
<path fill-rule="evenodd" clip-rule="evenodd" fill="none" stroke="#FFFFFF" stroke-width="40" stroke-miterlimit="10" d="M853,446
	v-5h376v5H853z"/>
<path fill-rule="evenodd" clip-rule="evenodd" fill="none" stroke="#FFFFFF" stroke-width="40" stroke-miterlimit="10" d="M858,656
	h-5V223h5V656z"/>
<path fill-rule="evenodd" clip-rule="evenodd" fill="none" stroke="#FFFFFF" stroke-width="40" stroke-miterlimit="10" d="
	M855.62,226.992l-2.633-4.276L1229.379,3.007l2.633,4.276L855.62,226.992z"/>
<path fill-rule="evenodd" clip-rule="evenodd" fill="none" stroke="#FFFFFF" stroke-width="40" stroke-miterlimit="10" d="M7,656H2
	V223h5V656z"/>
<path fill-rule="evenodd" clip-rule="evenodd" fill="none" stroke="#FFFFFF" stroke-width="40" stroke-miterlimit="10" d="
	M5.004,227.386l2.413-4.383l375.578,210.612l-2.413,4.384L5.004,227.386z"/>
<path fill-rule="evenodd" clip-rule="evenodd" fill="none" stroke="#FFFFFF" stroke-width="40" stroke-miterlimit="10" d="
	M752.469,223.01l2.539,4.495L380.53,437.99l-2.539-4.495L752.469,223.01z"/>
<path fill-rule="evenodd" clip-rule="evenodd" fill="none" stroke="#FFFFFF" stroke-width="40" stroke-miterlimit="10" d="M758,656
	h-5V223h5V656z"/>
<path fill="none" stroke="#FFFFFF" stroke-width="10" stroke-miterlimit="10" d="M2214.985,656.753V222.247L2591,4.995
	l376.014,217.252v434.505L2591,874.005L2214.985,656.753z"/>
<path fill="none" stroke="#FFFFFF" stroke-width="10" stroke-miterlimit="10" d="M1363.985,656.753V222.247L1740,4.995
	l376.015,217.252v434.505L1740,874.005L1363.985,656.753z"/>
<path fill="none" stroke="#FFFFFF" stroke-width="10" stroke-miterlimit="10" d="M855.985,656.753V222.247L1232,4.995
	l376.015,217.252v434.505L1232,874.005L855.985,656.753z"/>
<path fill="none" stroke="#FFFFFF" stroke-width="10" stroke-miterlimit="10" d="M4.985,656.753V222.247L381,4.995l376.015,217.252
	v434.505L381,874.005L4.985,656.753z"/>
</svg>
