<svg id="Layer_1" data-name="Layer 1" xmlns="http://www.w3.org/2000/svg" viewBox="0 0 393.6 376.6"><defs><style>.cls-1{fill:#fff;}</style></defs><title>mesh-logo-round-corners</title><path class="cls-1" d="M267.2,249.6a9.6,9.6,0,0,1-4.3,7.5l-56.3,32.5a9.6,9.6,0,0,1-8.7,0l-56.3-32.5a9.6,9.6,0,0,1-4.3-7.5v-65a9.6,9.6,0,0,1,4.3-7.5l56.3-32.5a9.6,9.6,0,0,1,8.7,0l56.3,32.5a9.6,9.6,0,0,1,4.3,7.5v65Z" transform="translate(-70.4 -143.5)"/><path class="cls-1" d="M332.4,363.6a9.6,9.6,0,0,1-4.3,7.5l-56.3,32.5a9.6,9.6,0,0,1-8.7,0l-56.3-32.5a9.6,9.6,0,0,1-4.3-7.5v-65a9.6,9.6,0,0,1,4.3-7.5l56.3-32.5a9.6,9.6,0,0,1,8.7,0l56.3,32.5a9.6,9.6,0,0,1,4.3,7.5v65Z" transform="translate(-70.4 -143.5)"/><path class="cls-1" d="M200.4,363.6a9.6,9.6,0,0,1-4.3,7.5l-56.3,32.5a9.6,9.6,0,0,1-8.7,0L74.7,371.1a9.6,9.6,0,0,1-4.3-7.5v-65a9.6,9.6,0,0,1,4.3-7.5l56.3-32.5a9.6,9.6,0,0,1,8.7,0L196,291.1a9.6,9.6,0,0,1,4.3,7.5v65Z" transform="translate(-70.4 -143.5)"/><path class="cls-1" d="M399,249.6a9.6,9.6,0,0,1-4.3,7.5l-56.3,32.5a9.6,9.6,0,0,1-8.7,0l-56.3-32.5a9.6,9.6,0,0,1-4.3-7.5v-65a9.6,9.6,0,0,1,4.3-7.5l56.3-32.5a9.6,9.6,0,0,1,8.7,0l56.3,32.5a9.6,9.6,0,0,1,4.3,7.5v65Z" transform="translate(-70.4 -143.5)"/><path class="cls-1" d="M464,364.6a9.6,9.6,0,0,1-4.3,7.5l-56.3,32.5a9.6,9.6,0,0,1-8.7,0l-56.3-32.5a9.6,9.6,0,0,1-4.3-7.5v-65a9.6,9.6,0,0,1,4.3-7.5l56.3-32.5a9.6,9.6,0,0,1,8.7,0l56.3,32.5a9.6,9.6,0,0,1,4.3,7.5v65Z" transform="translate(-70.4 -143.5)"/><path class="cls-1" d="M399.1,479.4a9.4,9.4,0,0,1-4.3,7.5l-56.6,32.2a9.7,9.7,0,0,1-8.7,0l-57.2-33a9.7,9.7,0,0,1-4.4-7.5l-0.5-65.1a9.4,9.4,0,0,1,4.3-7.5l56.6-32.2a9.7,9.7,0,0,1,8.7,0l57.2,33a9.7,9.7,0,0,1,4.4,7.5Z" transform="translate(-70.4 -143.5)"/><path class="cls-1" d="M266,478a9.6,9.6,0,0,1-4.3,7.5l-56.3,32.5a9.6,9.6,0,0,1-8.7,0l-56.3-32.5A9.6,9.6,0,0,1,136,478V413a9.6,9.6,0,0,1,4.3-7.5L196.7,373a9.6,9.6,0,0,1,8.7,0l56.3,32.5A9.6,9.6,0,0,1,266,413v65Z" transform="translate(-70.4 -143.5)"/></svg>